<svg width="17" height="25" viewBox="0 0 17 25" fill="none" xmlns="http://www.w3.org/2000/svg">
<path d="M16.3625 17.5625H13.9456C13.5935 17.5625 13.3081 17.8458 13.3081 18.1953V20.8767H6.8V14.1875H11.2625C11.6146 14.1875 11.9 13.9042 11.9 13.5547V11.4453C11.9 11.0958 11.6146 10.8125 11.2625 10.8125H6.8V7.46091C6.8 5.75939 8.10486 4.45052 10.0827 4.45052C11.3395 4.45052 12.52 5.05723 13.1455 5.44451C13.4191 5.61395 13.777 5.55267 13.9789 5.30292L15.4926 3.43016C15.7175 3.15194 15.6668 2.74435 15.38 2.52941C14.5097 1.87719 12.5681 0.6875 9.98383 0.6875C5.63263 0.6875 2.55 3.46882 2.55 7.32997V10.8125H1.0625C0.710441 10.8125 0.425 11.0958 0.425 11.4453V13.5547C0.425 13.9042 0.710441 14.1875 1.0625 14.1875H2.55V20.9375H0.6375C0.285441 20.9375 0 21.2208 0 21.5703V23.6797C0 24.0292 0.285441 24.3125 0.6375 24.3125H16.3625C16.7146 24.3125 17 24.0292 17 23.6797V18.1953C17 17.8458 16.7146 17.5625 16.3625 17.5625Z" fill="#7F9C9F"/>
</svg>
